<svg width="305" height="117" viewBox="0 0 305 117" fill="none" xmlns="http://www.w3.org/2000/svg">
<path d="M52.2 22.52C52.48 17.12 56.32 14.16 61.92 14.16C67.92 14.16 71.12 17.56 71.12 21.88C71.12 25.52 68.84 27.76 66.72 28.48V28.64C69.68 29.56 71.64 31.96 71.64 35.92C71.64 40.68 68.28 44.2 62.16 44.2C56.4 44.2 52.04 41.32 51.8 35.2H57.24C57.36 37.72 59.04 39.52 62.04 39.52C64.84 39.52 66.28 37.76 66.28 35.44C66.28 32.16 64.2 30.96 60.04 30.96H58.88V26.36H60.04C63.32 26.36 65.72 25.44 65.72 22.56C65.72 20.28 64.32 18.92 61.76 18.92C59.04 18.92 57.88 20.68 57.68 22.52H52.2ZM76.0653 29.04C76.0653 20.6 78.6253 14.28 86.8653 14.28C95.1053 14.28 97.6653 20.6 97.6653 29.04C97.6653 37.56 95.1053 43.92 86.8653 43.92C78.6253 43.92 76.0653 37.56 76.0653 29.04ZM92.1453 29.04C92.1453 24.04 91.5853 19.48 86.8653 19.48C82.1453 19.48 81.5853 24.04 81.5853 29.04C81.5853 34.24 82.1453 38.72 86.8653 38.72C91.5853 38.72 92.1453 34.24 92.1453 29.04ZM110.645 19.56H115.925V27.32H123.485V32.2H115.925V39.96H110.645V32.2H103.085V27.32H110.645V19.56Z" fill="#E31E24"/>
<path d="M22 13C12.7198 13 5.16998 20.55 5.16998 29.83C5.16998 39.11 12.7199 46.66 22 46.66C31.28 46.66 38.83 39.11 38.83 29.83C38.83 20.55 31.2801 13 22 13ZM29.8976 40.7001L22 36.9627L14.1024 40.7001L15.2163 32.0342L9.22151 25.6782L17.8074 24.0597L22 16.3939L26.1924 24.0596L34.7785 25.678L28.7836 32.0341L29.8976 40.7001Z" fill="#2B2A29"/>
<path d="M24.516 26.3671L22 21.7668L19.484 26.3671L14.3314 27.3383L17.929 31.1528L17.2605 36.3534L22 34.1105L26.7394 36.3534L26.0709 31.1528L29.6686 27.3383L24.516 26.3671Z" fill="#2B2A29"/>
<path d="M10.2433 51.1092C11.3815 50.9439 12.4716 50.5588 13.4633 49.9711V47.2696C12.3333 46.7153 11.2554 46.0484 10.2433 45.2747V51.1092Z" fill="#2B2A29"/>
<path d="M30.5367 49.9711C31.5284 50.5588 32.6184 50.9439 33.7567 51.1092V45.2747C32.7446 46.0484 31.6667 46.7152 30.5367 47.2696V49.9711Z" fill="#2B2A29"/>
<path d="M16.0414 48.3097V57C17.95 56.7245 19.705 55.8381 21.0794 54.4358L22 53.4967L22.9206 54.4358C24.2951 55.838 26.05 56.7245 27.9586 57V48.3097C26.0581 48.9202 24.0537 49.2382 22 49.2382C19.9464 49.2382 17.9419 48.9202 16.0414 48.3097Z" fill="#2B2A29"/>
<path d="M8.464 75.626L4.198 67.436H7.042L9.742 73.178L12.424 67.436H15.232L10.984 75.626V80H8.464V75.626ZM20.9694 71.936C19.7634 71.936 18.8094 72.71 18.6114 74.078H23.3454C23.3094 72.764 22.2654 71.936 20.9694 71.936ZM25.7034 76.868C25.1634 78.704 23.5074 80.162 21.0414 80.162C18.1434 80.162 16.0374 78.146 16.0374 75.014C16.0374 71.864 18.0894 69.866 21.0414 69.866C23.9214 69.866 25.9554 71.828 25.9554 74.798C25.9554 75.122 25.9374 75.446 25.8834 75.77H18.5934C18.7194 77.246 19.7274 78.074 20.9874 78.074C22.0674 78.074 22.6614 77.534 22.9854 76.868H25.7034ZM27.1467 74.978C27.1467 71.864 29.1627 69.866 31.7007 69.866C33.3027 69.866 34.4007 70.622 34.9947 71.45V70.028H37.5327V80H34.9947V78.542C34.4007 79.406 33.2667 80.162 31.6827 80.162C29.1627 80.162 27.1467 78.092 27.1467 74.978ZM34.9947 75.014C34.9947 73.124 33.7347 72.08 32.3487 72.08C30.9987 72.08 29.7207 73.088 29.7207 74.978C29.7207 76.868 30.9987 77.948 32.3487 77.948C33.7347 77.948 34.9947 76.904 34.9947 75.014ZM42.514 75.032V80H39.994V70.028H42.514V71.576C43.144 70.55 44.188 69.884 45.574 69.884V72.53H44.908C43.414 72.53 42.514 73.106 42.514 75.032ZM55.0113 77.156C55.0113 78.866 53.5173 80.162 51.0873 80.162C48.5853 80.162 46.8393 78.704 46.7313 76.85H49.2693C49.3593 77.606 50.0613 78.182 51.0693 78.182C52.0593 78.182 52.5993 77.732 52.5993 77.156C52.5993 75.374 46.9653 76.508 46.9653 72.854C46.9653 71.198 48.4413 69.866 50.9073 69.866C53.3193 69.866 54.7773 71.18 54.9213 73.16H52.5093C52.4373 72.386 51.8253 71.864 50.8353 71.864C49.8993 71.864 49.4133 72.242 49.4133 72.818C49.4133 74.636 54.9393 73.502 55.0113 77.156ZM70.999 75.014C70.999 78.146 68.695 80.162 65.797 80.162C62.917 80.162 60.739 78.146 60.739 75.014C60.739 71.864 62.989 69.866 65.869 69.866C68.749 69.866 70.999 71.864 70.999 75.014ZM63.295 75.014C63.295 76.994 64.447 77.966 65.797 77.966C67.129 77.966 68.407 76.994 68.407 75.014C68.407 73.016 67.165 72.062 65.833 72.062C64.501 72.062 63.295 73.016 63.295 75.014ZM73.1175 80V72.098H71.9835V70.028H73.1175V69.524C73.1175 67.076 74.5035 65.942 77.3115 66.014V68.138C76.0875 68.102 75.6735 68.498 75.6735 69.614V70.028H77.4195V72.098H75.6735V80H73.1175ZM82.7296 73.7C82.7296 69.938 85.4836 67.274 89.1016 67.274C91.8916 67.274 94.1596 68.768 95.0056 71.342H92.1076C91.5136 70.136 90.4336 69.542 89.0836 69.542C86.8876 69.542 85.3216 71.144 85.3216 73.7C85.3216 76.238 86.8876 77.858 89.0836 77.858C90.4336 77.858 91.5136 77.264 92.1076 76.04H95.0056C94.1596 78.632 91.8916 80.108 89.1016 80.108C85.4836 80.108 82.7296 77.462 82.7296 73.7ZM106.788 75.014C106.788 78.146 104.484 80.162 101.586 80.162C98.706 80.162 96.528 78.146 96.528 75.014C96.528 71.864 98.778 69.866 101.658 69.866C104.538 69.866 106.788 71.864 106.788 75.014ZM99.084 75.014C99.084 76.994 100.236 77.966 101.586 77.966C102.918 77.966 104.196 76.994 104.196 75.014C104.196 73.016 102.954 72.062 101.622 72.062C100.29 72.062 99.084 73.016 99.084 75.014ZM122.587 80V74.492C122.587 72.908 121.705 72.08 120.373 72.08C119.023 72.08 118.141 72.908 118.141 74.492V80H115.621V74.492C115.621 72.908 114.739 72.08 113.407 72.08C112.039 72.08 111.157 72.908 111.157 74.492V80H108.637V70.028H111.157V71.234C111.787 70.406 112.849 69.884 114.091 69.884C115.639 69.884 116.917 70.55 117.601 71.792C118.249 70.658 119.563 69.884 121.021 69.884C123.415 69.884 125.107 71.396 125.107 74.15V80H122.587ZM130.018 71.486C130.63 70.568 131.8 69.866 133.312 69.866C135.868 69.866 137.866 71.864 137.866 74.978C137.866 78.092 135.868 80.162 133.312 80.162C131.746 80.162 130.63 79.442 130.018 78.578V80H127.498V66.68H130.018V71.486ZM135.292 74.978C135.292 73.088 134.014 72.08 132.646 72.08C131.296 72.08 130.018 73.124 130.018 75.014C130.018 76.904 131.296 77.948 132.646 77.948C134.014 77.948 135.292 76.868 135.292 74.978ZM139.697 80V70.028H142.217V80H139.697ZM140.975 68.84C140.075 68.84 139.427 68.192 139.427 67.364C139.427 66.536 140.075 65.888 140.975 65.888C141.857 65.888 142.523 66.536 142.523 67.364C142.523 68.192 141.857 68.84 140.975 68.84ZM151.691 80V74.492C151.691 72.89 150.809 72.026 149.477 72.026C148.109 72.026 147.227 72.89 147.227 74.492V80H144.707V70.028H147.227V71.27C147.875 70.424 148.955 69.884 150.233 69.884C152.555 69.884 154.211 71.396 154.211 74.15V80H151.691ZM160.891 71.936C159.685 71.936 158.731 72.71 158.533 74.078H163.267C163.231 72.764 162.187 71.936 160.891 71.936ZM165.625 76.868C165.085 78.704 163.429 80.162 160.963 80.162C158.065 80.162 155.959 78.146 155.959 75.014C155.959 71.864 158.011 69.866 160.963 69.866C163.843 69.866 165.877 71.828 165.877 74.798C165.877 75.122 165.859 75.446 165.805 75.77H158.515C158.641 77.246 159.649 78.074 160.909 78.074C161.989 78.074 162.583 77.534 162.907 76.868H165.625ZM167.069 74.978C167.069 71.864 169.085 69.866 171.641 69.866C172.955 69.866 174.215 70.478 174.899 71.414V66.68H177.455V80H174.899V78.524C174.305 79.442 173.189 80.162 171.623 80.162C169.085 80.162 167.069 78.092 167.069 74.978ZM174.917 75.014C174.917 73.124 173.657 72.08 172.271 72.08C170.921 72.08 169.643 73.088 169.643 74.978C169.643 76.868 170.921 77.948 172.271 77.948C173.657 77.948 174.917 76.904 174.917 75.014ZM191.495 67.418V69.47H186.725V72.62H190.955V74.618H186.725V77.948H191.495V80H184.205V67.418H191.495ZM199.293 80L197.241 76.904L195.423 80H192.723L195.981 74.996L192.687 70.028H195.531L197.565 73.106L199.401 70.028H202.101L198.825 74.996L202.137 80H199.293ZM206.026 71.468C206.62 70.622 207.772 69.866 209.32 69.866C211.876 69.866 213.874 71.864 213.874 74.978C213.874 78.092 211.876 80.162 209.32 80.162C207.754 80.162 206.638 79.388 206.026 78.578V84.752H203.506V70.028H206.026V71.468ZM211.3 74.978C211.3 73.088 210.022 72.08 208.654 72.08C207.304 72.08 206.026 73.124 206.026 75.014C206.026 76.904 207.304 77.948 208.654 77.948C210.022 77.948 211.3 76.868 211.3 74.978ZM219.989 71.936C218.783 71.936 217.829 72.71 217.631 74.078H222.365C222.329 72.764 221.285 71.936 219.989 71.936ZM224.723 76.868C224.183 78.704 222.527 80.162 220.061 80.162C217.163 80.162 215.057 78.146 215.057 75.014C215.057 71.864 217.109 69.866 220.061 69.866C222.941 69.866 224.975 71.828 224.975 74.798C224.975 75.122 224.957 75.446 224.903 75.77H217.613C217.739 77.246 218.747 78.074 220.007 78.074C221.087 78.074 221.681 77.534 222.005 76.868H224.723ZM229.334 75.032V80H226.814V70.028H229.334V71.576C229.964 70.55 231.008 69.884 232.394 69.884V72.53H231.728C230.234 72.53 229.334 73.106 229.334 75.032ZM234.092 80V70.028H236.612V80H234.092ZM235.37 68.84C234.47 68.84 233.822 68.192 233.822 67.364C233.822 66.536 234.47 65.888 235.37 65.888C236.252 65.888 236.918 66.536 236.918 67.364C236.918 68.192 236.252 68.84 235.37 68.84ZM243.385 71.936C242.179 71.936 241.225 72.71 241.027 74.078H245.761C245.725 72.764 244.681 71.936 243.385 71.936ZM248.119 76.868C247.579 78.704 245.923 80.162 243.457 80.162C240.559 80.162 238.453 78.146 238.453 75.014C238.453 71.864 240.505 69.866 243.457 69.866C246.337 69.866 248.371 71.828 248.371 74.798C248.371 75.122 248.353 75.446 248.299 75.77H241.009C241.135 77.246 242.143 78.074 243.403 78.074C244.483 78.074 245.077 77.534 245.401 76.868H248.119ZM257.195 80V74.492C257.195 72.89 256.313 72.026 254.981 72.026C253.613 72.026 252.731 72.89 252.731 74.492V80H250.211V70.028H252.731V71.27C253.379 70.424 254.459 69.884 255.737 69.884C258.059 69.884 259.715 71.396 259.715 74.15V80H257.195ZM261.463 75.014C261.463 71.882 263.515 69.866 266.395 69.866C268.879 69.866 270.553 71.162 271.093 73.394H268.375C268.087 72.548 267.421 72.008 266.377 72.008C264.973 72.008 264.037 73.07 264.037 75.014C264.037 76.958 264.973 78.002 266.377 78.002C267.421 78.002 268.069 77.534 268.375 76.634H271.093C270.553 78.758 268.879 80.162 266.395 80.162C263.515 80.162 261.463 78.146 261.463 75.014ZM277.223 71.936C276.017 71.936 275.063 72.71 274.865 74.078H279.599C279.563 72.764 278.519 71.936 277.223 71.936ZM281.957 76.868C281.417 78.704 279.761 80.162 277.295 80.162C274.397 80.162 272.291 78.146 272.291 75.014C272.291 71.864 274.343 69.866 277.295 69.866C280.175 69.866 282.209 71.828 282.209 74.798C282.209 75.122 282.191 75.446 282.137 75.77H274.847C274.973 77.246 275.981 78.074 277.241 78.074C278.321 78.074 278.915 77.534 279.239 76.868H281.957Z" fill="black"/>
</svg>
